<svg width="286" height="68" viewBox="0 0 286 68" fill="none" xmlns="http://www.w3.org/2000/svg">
<path d="M145.067 65.6997L144.51 63.9561H141.519L140.893 65.6997H139.64L142.91 57.4699H143.189L146.25 65.6997H145.067ZM143.049 59.5622L141.797 63.1191H144.232L143.049 59.5622Z" fill="#77787B"/>
<path d="M147.92 65.28L147.572 65.8379H147.015V57.3292H148.059V60.1887C148.128 60.0492 148.337 59.9097 148.615 59.84C148.894 59.7005 149.172 59.7005 149.45 59.7005C150.285 59.7005 150.911 59.9795 151.398 60.5374C151.886 61.0954 152.164 61.7928 152.164 62.6995C152.164 63.6759 151.886 64.4431 151.398 65.001C150.911 65.559 150.216 65.8379 149.381 65.8379C149.102 65.8379 148.824 65.7682 148.546 65.6984C148.268 65.559 148.059 65.4195 147.92 65.28ZM148.059 60.9559V64.3733C148.059 64.4431 148.198 64.5128 148.476 64.6523C148.755 64.7918 148.963 64.8615 149.102 64.8615C149.798 64.8615 150.355 64.722 150.633 64.3733C150.911 64.0246 151.12 63.4667 151.12 62.6297C151.12 61.9323 150.911 61.4441 150.564 61.0256C150.216 60.6769 149.729 60.4677 149.102 60.4677C148.963 60.4677 148.824 60.5374 148.546 60.6072C148.337 60.8164 148.128 60.8861 148.059 60.9559Z" fill="#77787B"/>
<path d="M152.929 62.6995C152.929 61.7928 153.207 61.0256 153.695 60.4677C154.182 59.9097 154.808 59.6308 155.643 59.6308C156.478 59.6308 157.173 59.9097 157.591 60.4677C158.078 61.0256 158.287 61.7928 158.287 62.6995C158.287 63.6759 158.078 64.4431 157.591 64.9313C157.104 65.4892 156.478 65.7682 155.643 65.7682C154.808 65.7682 154.112 65.4892 153.695 64.9313C153.207 64.3733 152.929 63.6759 152.929 62.6995ZM154.042 62.6995C154.042 64.1641 154.599 64.9313 155.643 64.9313C156.13 64.9313 156.547 64.7221 156.825 64.3036C157.104 63.8851 157.243 63.3272 157.243 62.6995C157.243 61.2349 156.686 60.4677 155.643 60.4677C155.156 60.4677 154.808 60.6769 154.529 61.0256C154.251 61.3744 154.042 62.0021 154.042 62.6995Z" fill="#77787B"/>
<path d="M159.191 67.3026L159.748 66.4656C160.374 66.8841 160.931 67.0933 161.418 67.0933C161.905 67.0933 162.253 67.0236 162.531 66.8144C162.809 66.6749 162.948 66.4656 162.948 66.1867C162.948 65.6985 162.6 65.4892 161.905 65.4892C161.765 65.4892 161.557 65.4892 161.278 65.559C161 65.6287 160.722 65.6287 160.583 65.6287C159.748 65.6287 159.33 65.28 159.33 64.6523C159.33 64.4431 159.4 64.3036 159.609 64.0944C159.817 63.8851 160.026 63.8154 160.374 63.7456C159.539 63.3272 159.122 62.6995 159.122 61.7231C159.122 61.0954 159.33 60.6072 159.748 60.1887C160.165 59.7703 160.722 59.561 161.348 59.561C161.905 59.561 162.392 59.7005 162.74 59.9097L163.296 59.282L163.992 59.9097L163.366 60.3979C163.644 60.7467 163.783 61.2349 163.783 61.7928C163.783 62.4205 163.574 62.9087 163.227 63.3272C162.879 63.7456 162.392 63.9549 161.765 64.0246L160.931 64.0944C160.861 64.0944 160.722 64.1641 160.513 64.2338C160.304 64.3036 160.235 64.3733 160.235 64.5128C160.235 64.6523 160.444 64.722 160.791 64.722C160.931 64.722 161.209 64.722 161.557 64.6523C161.905 64.5826 162.113 64.5826 162.322 64.5826C162.879 64.5826 163.366 64.722 163.714 65.001C164.062 65.28 164.201 65.6985 164.201 66.1867C164.201 66.7446 163.922 67.1631 163.435 67.5118C162.948 67.8605 162.322 68 161.557 68C161.139 68 160.791 67.9302 160.374 67.7908C159.817 67.6513 159.469 67.5118 159.191 67.3026ZM161.418 60.4677C161.07 60.4677 160.722 60.6072 160.513 60.8861C160.304 61.1651 160.165 61.4441 160.165 61.8626C160.165 62.281 160.304 62.6297 160.513 62.9087C160.722 63.1877 161.07 63.3272 161.418 63.3272C161.765 63.3272 162.113 63.1877 162.322 62.9087C162.531 62.6297 162.67 62.281 162.67 61.8626C162.67 61.5138 162.531 61.1651 162.322 60.8861C162.113 60.6072 161.765 60.4677 161.418 60.4677Z" fill="#77787B"/>
<path d="M168.445 65.001C168.027 65.559 167.401 65.7682 166.497 65.7682C166.009 65.7682 165.662 65.6287 165.314 65.28C164.966 64.9313 164.827 64.5128 164.827 64.0246C164.827 63.3969 165.105 62.9087 165.592 62.4902C166.149 62.0718 166.775 61.8625 167.61 61.8625C167.818 61.8625 168.097 61.9323 168.375 62.002C168.375 61.0256 167.958 60.5374 167.123 60.5374C166.496 60.5374 165.94 60.7466 165.592 61.0954L165.175 60.1887C165.383 60.0492 165.662 59.9097 166.009 59.7702C166.357 59.6307 166.705 59.561 167.053 59.561C167.888 59.561 168.514 59.7702 168.932 60.119C169.349 60.4677 169.488 61.1651 169.488 62.002V64.0943C169.488 64.5825 169.627 64.9313 169.975 65.1405V65.6984C169.558 65.6984 169.21 65.6287 169.001 65.4892C168.793 65.3497 168.514 65.28 168.445 65.001ZM168.375 62.7692C168.027 62.6995 167.818 62.6297 167.679 62.6297C167.123 62.6297 166.705 62.7692 166.357 63.0482C166.009 63.3272 165.87 63.6759 165.87 64.0246C165.87 64.6523 166.218 64.9313 166.984 64.9313C167.54 64.9313 167.958 64.6523 168.375 64.1641V62.7692Z" fill="#77787B"/>
<path d="M174.776 65.6984V65.28C174.429 65.6287 173.872 65.8379 173.176 65.8379C172.411 65.8379 171.854 65.559 171.367 65.0708C170.88 64.5826 170.671 63.8154 170.671 62.9087C170.671 62.002 170.95 61.2349 171.437 60.6072C171.993 59.9795 172.62 59.6308 173.315 59.6308C173.941 59.6308 174.359 59.7702 174.707 60.0492V57.3292H175.75V65.6984H174.776ZM174.776 61.0954C174.498 60.6769 174.15 60.4677 173.663 60.4677C173.107 60.4677 172.62 60.6769 172.272 61.0954C171.924 61.5138 171.715 62.0718 171.715 62.6995C171.715 64.0944 172.341 64.8615 173.663 64.8615C173.802 64.8615 174.011 64.7918 174.289 64.722C174.498 64.5826 174.637 64.5128 174.707 64.3733V61.0954H174.776Z" fill="#77787B"/>
<path d="M177.003 62.6995C177.003 61.7928 177.281 61.0256 177.768 60.4677C178.255 59.9097 178.881 59.6308 179.716 59.6308C180.551 59.6308 181.247 59.9097 181.665 60.4677C182.152 61.0256 182.36 61.7928 182.36 62.6995C182.36 63.6759 182.152 64.4431 181.665 64.9313C181.178 65.4892 180.551 65.7682 179.716 65.7682C178.881 65.7682 178.186 65.4892 177.768 64.9313C177.212 64.3733 177.003 63.6759 177.003 62.6995ZM178.047 62.6995C178.047 64.1641 178.603 64.9313 179.647 64.9313C180.134 64.9313 180.551 64.7221 180.83 64.3036C181.108 63.8851 181.247 63.3272 181.247 62.6995C181.247 61.2349 180.69 60.4677 179.647 60.4677C179.16 60.4677 178.812 60.6769 178.534 61.0256C178.255 61.3744 178.047 62.0021 178.047 62.6995Z" fill="#77787B"/>
<path d="M183.056 65.3497L183.404 64.3733C183.96 64.7918 184.447 64.9313 184.795 64.9313C185.421 64.9313 185.769 64.6523 185.769 64.0944C185.769 63.6759 185.421 63.3969 184.795 63.118C184.308 62.9087 183.96 62.6995 183.821 62.6297C183.682 62.4903 183.473 62.3508 183.404 62.2113C183.264 62.0718 183.195 61.9323 183.125 61.7231C183.056 61.5836 183.056 61.3744 183.056 61.1651C183.056 60.6769 183.264 60.3282 183.612 60.0492C183.96 59.7703 184.447 59.6308 185.004 59.6308C185.421 59.6308 185.978 59.7703 186.604 60.0492L186.326 61.0256C185.908 60.6769 185.491 60.5374 185.073 60.5374C184.795 60.5374 184.586 60.6072 184.447 60.7467C184.308 60.8862 184.169 61.0256 184.169 61.1651C184.169 61.5138 184.378 61.8626 184.795 62.0021L185.56 62.3508C186.047 62.56 186.326 62.7692 186.535 63.0482C186.743 63.3272 186.882 63.6759 186.882 64.0944C186.882 64.6523 186.674 65.0708 186.326 65.3497C185.978 65.6287 185.421 65.7682 184.795 65.7682C184.169 65.7682 183.612 65.6287 183.056 65.3497Z" fill="#77787B"/>
<path d="M205.877 65.6984L205.599 64.0246H202.816L201.911 65.6984H200.729L205.251 57.8174H205.529L207.06 65.6984H205.877ZM205.042 59.9097L203.233 63.2574H205.46L205.042 59.9097Z" fill="#77787B"/>
<path d="M209.286 60.7467H208.66L208.799 59.9795H209.425L209.634 58.7938L210.817 58.3754L210.469 59.9795H212L211.861 60.7467H210.33L209.704 63.6061C209.634 63.8154 209.634 64.0246 209.634 64.0944C209.634 64.6523 209.913 64.9313 210.469 64.9313C210.747 64.9313 211.026 64.8615 211.304 64.722L211.234 65.6287C210.956 65.7682 210.469 65.7682 209.843 65.7682C209.425 65.7682 209.147 65.6287 208.869 65.4195C208.591 65.2102 208.521 64.7918 208.521 64.3733C208.521 64.3036 208.521 64.1641 208.591 64.0246L209.286 60.7467Z" fill="#77787B"/>
<path d="M213.809 60.7467H213.183L213.322 59.9795H213.948L214.157 58.7938L215.339 58.3754L214.992 59.9795H216.522L216.383 60.7467H214.852L214.226 63.6061C214.157 63.8154 214.157 64.0246 214.157 64.0944C214.157 64.6523 214.435 64.9313 214.992 64.9313C215.27 64.9313 215.548 64.8615 215.827 64.722L215.757 65.6287C215.479 65.7682 214.992 65.7682 214.365 65.7682C213.948 65.7682 213.67 65.6287 213.391 65.4195C213.113 65.2102 213.043 64.7918 213.043 64.3733C213.043 64.3036 213.043 64.1641 213.113 64.0246L213.809 60.7467Z" fill="#77787B"/>
<path d="M217.079 63.6061C217.079 62.56 217.357 61.723 217.983 60.9559C218.609 60.1887 219.305 59.84 220.279 59.84C220.975 59.84 221.532 60.0492 221.879 60.3979C222.227 60.7466 222.436 61.3046 222.436 62.002C222.436 62.56 222.297 63.1179 222.088 63.6759C221.879 64.2338 221.532 64.722 221.044 65.1405C220.557 65.5589 219.931 65.6984 219.235 65.6984C218.54 65.6984 218.053 65.4892 217.635 65.1405C217.218 64.7918 217.079 64.3036 217.079 63.6061ZM218.122 63.5364C218.122 64.5128 218.54 65.001 219.305 65.001C219.931 65.001 220.349 64.722 220.766 64.0943C221.114 63.5364 221.323 62.8389 221.323 62.0718C221.323 61.1651 220.905 60.6769 220.14 60.6769C219.723 60.6769 219.375 60.8164 219.096 61.0953C218.818 61.3743 218.54 61.7928 218.401 62.2112C218.192 62.6995 218.122 63.1179 218.122 63.5364Z" fill="#77787B"/>
<path d="M226.959 60.9559C226.75 60.8164 226.472 60.6769 226.193 60.6769C225.846 60.6769 225.498 60.8164 225.15 61.1651C224.802 61.5138 224.593 61.8625 224.524 62.3507L223.967 65.6287H222.923L224.037 59.9795H225.08L224.941 60.8861C225.428 60.1887 226.054 59.84 226.75 59.84C226.889 59.84 227.098 59.84 227.307 59.9097L226.959 60.9559Z" fill="#77787B"/>
<path d="M230.924 65.6985L231.551 62.3508C231.62 62.0718 231.62 61.7928 231.62 61.5836C231.62 60.9559 231.272 60.6769 230.646 60.6769C230.437 60.6769 230.159 60.7467 229.881 60.8862C229.602 61.0257 229.394 61.1651 229.255 61.3744L228.489 65.6287H227.515L228.28 61.3046C228.28 61.2349 228.28 61.0954 228.28 60.9559C228.28 60.6072 228.211 60.2585 228.141 59.9795L229.115 59.7703C229.185 60.2585 229.255 60.5374 229.255 60.6072C229.672 60.0492 230.298 59.7703 231.133 59.7703C232.177 59.7703 232.664 60.3282 232.664 61.3744C232.664 61.5836 232.664 61.7928 232.594 62.0718L231.968 65.6287H230.924V65.6985Z" fill="#77787B"/>
<path d="M234.682 62.9784C234.682 63.1179 234.612 63.3272 234.612 63.4667C234.612 63.9549 234.751 64.3036 235.03 64.5825C235.308 64.8615 235.656 64.9313 236.143 64.9313C236.56 64.9313 236.978 64.7918 237.395 64.4431L237.256 65.4892C236.7 65.6984 236.212 65.7682 235.725 65.7682C234.264 65.7682 233.499 64.9313 233.499 63.3272C233.499 62.3508 233.777 61.5138 234.404 60.8861C235.03 60.1887 235.795 59.9097 236.7 59.9097C237.256 59.9097 237.743 60.0492 238.021 60.2584C238.369 60.4677 238.509 60.8164 238.509 61.3046C238.509 61.9323 238.23 62.4205 237.743 62.7692C237.187 63.1179 236.56 63.3272 235.795 63.3272C235.447 63.2574 235.03 63.1877 234.682 62.9784ZM234.821 62.281C235.099 62.4205 235.378 62.4902 235.795 62.4902C236.352 62.4902 236.769 62.4205 237.117 62.2113C237.465 62.002 237.674 61.7928 237.674 61.4441C237.674 61.0256 237.395 60.8164 236.769 60.8164C235.865 60.7466 235.238 61.2349 234.821 62.281Z" fill="#77787B"/>
<path d="M239.065 67.9303V66.8841C239.691 66.8841 240.178 66.8144 240.456 66.6052C240.735 66.3959 240.943 66.117 241.083 65.6985C240.596 65.6985 240.248 65.2103 240.109 64.2339L239.413 59.9795H240.526L241.152 64.0944C241.222 64.5129 241.361 64.7221 241.57 64.7221L243.518 59.9795H244.701L241.848 66.3959C241.639 66.9539 241.291 67.3026 240.874 67.5816C240.456 67.8606 239.83 67.9303 239.065 67.9303Z" fill="#77787B"/>
<path d="M244.283 65.3497L244.84 64.3733C244.979 64.5128 245.188 64.6523 245.466 64.7221C245.744 64.8615 245.953 64.8615 246.162 64.8615C246.51 64.8615 246.718 64.7918 246.927 64.5826C247.136 64.4431 247.205 64.1641 247.205 63.8851C247.205 63.7456 247.136 63.6062 247.066 63.4667C246.927 63.3272 246.788 63.1877 246.51 63.0482L245.744 62.6298C245.536 62.4903 245.327 62.3508 245.257 62.1415C245.118 61.9323 245.118 61.7231 245.118 61.5139C245.118 60.9559 245.327 60.5374 245.744 60.2585C246.162 59.9795 246.649 59.7703 247.275 59.7703C247.692 59.7703 248.179 59.9098 248.806 60.1887L248.388 61.0954C248.04 60.7467 247.692 60.6072 247.275 60.6072C246.997 60.6072 246.788 60.6769 246.579 60.8164C246.37 60.9559 246.301 61.1651 246.301 61.3744C246.301 61.5139 246.371 61.6533 246.44 61.7928C246.579 61.9323 246.718 62.0718 246.997 62.2113L247.762 62.6298C247.971 62.7692 248.179 62.9087 248.249 63.118C248.388 63.3272 248.388 63.5364 248.388 63.7456C248.388 64.3733 248.179 64.8615 247.692 65.2103C247.275 65.559 246.718 65.7682 246.023 65.7682C245.327 65.7682 244.77 65.6287 244.283 65.3497Z" fill="#77787B"/>
<path d="M257.503 60.3282L256.807 63.6759C256.807 63.8154 256.738 63.9549 256.738 64.1641C256.738 64.722 256.807 65.2102 257.016 65.6984H255.972C255.903 65.559 255.833 65.4195 255.763 65.1405C255.624 65.3497 255.346 65.4892 254.998 65.6287C254.65 65.7682 254.302 65.8379 253.954 65.8379C253.398 65.8379 252.98 65.6984 252.633 65.3497C252.285 65.001 252.146 64.5128 252.146 63.8851C252.146 62.839 252.424 61.9323 253.05 61.0954C253.676 60.2584 254.442 59.9097 255.416 59.9097C256.459 59.84 257.085 60.0492 257.503 60.3282ZM256.39 60.9559C256.32 60.8164 255.972 60.7466 255.416 60.7466C254.859 60.7466 254.372 61.0256 253.954 61.6533C253.537 62.281 253.328 62.9784 253.328 63.8851C253.328 64.6523 253.676 65.001 254.372 65.001C254.72 65.001 255.068 64.7918 255.346 64.4431C255.624 64.0943 255.903 63.6061 255.972 63.0482L256.39 60.9559Z" fill="#77787B"/>
<path d="M259.312 60.7467H258.686L258.825 59.9795H259.451L259.66 58.7938L260.842 58.3754L260.495 59.9795H262.025L261.886 60.7467H260.355L259.729 63.6061C259.66 63.8154 259.66 64.0246 259.66 64.0944C259.66 64.6523 259.938 64.9313 260.495 64.9313C260.773 64.9313 261.051 64.8615 261.329 64.722L261.26 65.6287C260.982 65.7682 260.495 65.7682 259.868 65.7682C259.451 65.7682 259.173 65.6287 258.894 65.4195C258.616 65.2102 258.546 64.7918 258.546 64.3733C258.546 64.3036 258.546 64.1641 258.616 64.0246L259.312 60.7467Z" fill="#77787B"/>
<path d="M265.921 65.6985L267.313 57.8872H268.426L267.243 64.7221H270.792L270.653 65.6985H265.921Z" fill="#77787B"/>
<path d="M276.567 60.3282L275.871 63.6759C275.871 63.8154 275.802 63.9549 275.802 64.1641C275.802 64.722 275.871 65.2102 276.08 65.6984H275.036C274.967 65.559 274.897 65.4195 274.827 65.1405C274.688 65.3497 274.41 65.4892 274.062 65.6287C273.714 65.7682 273.366 65.8379 273.018 65.8379C272.462 65.8379 272.044 65.6984 271.697 65.3497C271.349 65.001 271.209 64.5128 271.209 63.8851C271.209 62.839 271.488 61.9323 272.114 61.0954C272.74 60.2584 273.506 59.9097 274.48 59.9097C275.523 59.84 276.219 60.0492 276.567 60.3282ZM275.454 60.9559C275.384 60.8164 275.036 60.7466 274.48 60.7466C273.923 60.7466 273.436 61.0256 273.018 61.6533C272.601 62.281 272.392 62.9784 272.392 63.8851C272.392 64.6523 272.74 65.001 273.436 65.001C273.784 65.001 274.132 64.7918 274.41 64.4431C274.688 64.0943 274.967 63.6061 275.036 63.0482L275.454 60.9559Z" fill="#77787B"/>
<path d="M282.272 65.7682H281.994L280.95 62.0718L278.654 65.7682H278.376L277.332 59.9097H278.376L279.002 63.5364L281.089 59.9097H281.367L282.411 63.5364L284.22 59.9097H285.264C284.011 62.281 283.037 64.2338 282.272 65.7682Z" fill="#77787B"/>
<path d="M195.788 61.5139H192.727V64.5826H195.788V61.5139Z" fill="#C4161C"/>
<path d="M140.405 29.9898V17.8544H142.075V29.9898H140.405Z" fill="#77787B"/>
<path d="M148.267 29.9897H144.789V17.8544C146.25 17.7846 147.293 17.7149 147.989 17.7149C149.172 17.7149 150.076 17.9938 150.772 18.4821C151.398 18.9703 151.746 19.7374 151.746 20.7138C151.746 21.2718 151.537 21.76 151.12 22.2482C150.703 22.7364 150.216 23.0154 149.728 23.0851C150.703 23.2944 151.398 23.7128 151.816 24.2708C152.233 24.8287 152.442 25.5262 152.442 26.4328C152.442 27.479 152.025 28.3159 151.259 29.0133C150.563 29.7108 149.52 29.9897 148.267 29.9897ZM146.458 19.1795V22.6667C146.806 22.6667 147.224 22.7364 147.78 22.7364C149.311 22.7364 150.146 22.1087 150.146 20.8533C150.146 19.7374 149.45 19.1795 147.989 19.1795C147.363 19.1795 146.876 19.1795 146.458 19.1795ZM146.458 23.9918V28.5949C147.015 28.6646 147.432 28.6646 147.78 28.6646C148.824 28.6646 149.589 28.4554 150.076 28.1067C150.563 27.6882 150.772 27.1303 150.772 26.2236C150.772 25.4564 150.563 24.8287 150.076 24.48C149.589 24.1313 148.894 23.9221 147.78 23.9221L146.458 23.9918Z" fill="#77787B"/>
<path d="M161.278 29.9897L160.443 27.4092H155.921L155.016 29.9897H153.138L158.078 17.7148H158.495L163.087 29.9897H161.278ZM158.217 20.923L156.338 26.2933H159.956L158.217 20.923ZM160.582 14.7159L159.052 16.8779H157.938L159.191 14.7159H160.582Z" fill="#77787B"/>
<path d="M172.201 30.199L165.94 21.3415V29.9897H164.339V17.8544H165.035L171.158 26.2236V17.8544H172.758V30.1292H172.201V30.199ZM170.81 15.2041C170.532 16.32 169.975 16.9477 169.21 16.9477C168.862 16.9477 168.514 16.8082 168.096 16.599C167.679 16.3897 167.401 16.2503 167.192 16.2503C166.775 16.2503 166.496 16.4595 166.287 16.8779H165.592C165.661 16.3897 165.87 16.041 166.148 15.6923C166.427 15.3436 166.775 15.2041 167.122 15.2041C167.54 15.2041 167.957 15.3436 168.375 15.5528C168.723 15.7621 169.071 15.9015 169.21 15.9015C169.627 15.9015 169.975 15.6923 170.114 15.2738H170.81V15.2041Z" fill="#77787B"/>
<path d="M176.794 19.3887V22.7364H180.76V24.1313H176.794V28.5251H182.29V29.9898H175.124V17.8544H182.36V19.319H176.794V19.3887Z" fill="#77787B"/>
<path d="M183.821 29.9898V29.5713L189.039 19.319H183.89V17.8544H191.265V18.2728L186.047 28.5251H191.474V29.9898H183.821Z" fill="#77787B"/>
<path d="M209.356 29.9898V24.1313H204.068V29.9898H202.398V17.8544H204.068V22.7364H209.356V17.8544H211.025V29.9898H209.356Z" fill="#77787B"/>
<path d="M212.904 23.8523C212.904 22.1087 213.321 20.6441 214.226 19.4585C215.13 18.2728 216.313 17.7149 217.774 17.7149C219.444 17.7149 220.766 18.2728 221.67 19.319C222.575 20.4349 222.992 21.8995 222.992 23.8523C222.992 25.8749 222.575 27.4092 221.67 28.5251C220.766 29.641 219.514 30.199 217.844 30.199C216.313 30.199 215.13 29.5713 214.295 28.3856C213.321 27.2697 212.904 25.7354 212.904 23.8523ZM214.643 23.8523C214.643 25.2472 214.922 26.4328 215.478 27.3395C216.035 28.2462 216.8 28.7344 217.774 28.7344C218.887 28.7344 219.792 28.3159 220.349 27.479C220.975 26.6421 221.253 25.4564 221.253 23.8523C221.253 20.7138 220.07 19.1795 217.774 19.1795C216.731 19.1795 215.965 19.598 215.409 20.4349C214.852 21.2718 214.643 22.3877 214.643 23.8523Z" fill="#77787B"/>
<path d="M226.541 19.3887V22.7364H230.785V24.1313H226.541V29.9898H224.871V17.8544H232.316V19.319H226.541V19.3887Z" fill="#77787B"/>
<path d="M235.377 19.3887V22.7364H239.621V24.1313H235.377V29.9898H233.777V17.8544H241.222V19.319H235.377V19.3887Z" fill="#77787B"/>
<path d="M251.727 29.9897L250.266 22.1784L247.692 30.1989H247.275L244.561 22.2481L243.17 30.0594H241.569L243.865 17.924H244.631L247.483 26.7815L250.127 17.924H250.893L253.328 30.0594H251.727V29.9897Z" fill="#77787B"/>
<path d="M262.164 29.9897L261.329 27.4092H256.807L255.902 29.9897H254.023L258.963 17.7149H259.381L263.973 29.9897H262.164ZM259.103 20.9231L257.224 26.2933H260.842L259.103 20.9231Z" fill="#77787B"/>
<path d="M273.088 30.199L266.826 21.3415V29.9898H265.226V17.8544H265.921L272.044 26.2236V17.8544H273.644V30.1292H273.088V30.199Z" fill="#77787B"/>
<path d="M283.872 30.199L277.61 21.3415V29.9898H276.01V17.8544H276.706L282.828 26.2236V17.8544H284.429V30.1292H283.872V30.199Z" fill="#77787B"/>
<path d="M149.241 50.3549L147.78 42.5436L145.136 50.4944H144.719L142.005 42.5436L140.614 50.3549H139.014L141.31 38.2195H142.075L144.928 47.0769L147.572 38.2195H148.337L150.772 50.3549H149.241Z" fill="#77787B"/>
<path d="M153.764 39.7538V43.1015H157.73V44.4964H153.764V48.8903H159.261V50.3549H152.094V38.2195H159.33V39.7538H153.764Z" fill="#77787B"/>
<path d="M169.001 50.5641L162.739 41.7067V50.4246H161.139V38.2195H161.835L167.958 46.5887V38.2195H169.558V50.4944H169.001V50.5641Z" fill="#77787B"/>
<path d="M174.428 50.3549H171.993V38.2195C173.523 38.1497 174.567 38.1497 174.984 38.1497C176.654 38.1497 178.046 38.638 179.02 39.6841C179.994 40.7303 180.481 42.0554 180.481 43.799C180.481 48.1928 178.463 50.3549 174.428 50.3549ZM173.593 39.7539V48.8205C173.941 48.8903 174.428 48.8903 174.984 48.8903C176.167 48.8903 177.072 48.4718 177.698 47.5651C178.394 46.7282 178.672 45.4728 178.672 43.9385C178.672 41.079 177.42 39.6144 174.845 39.6144C174.706 39.6144 174.289 39.6841 173.593 39.7539Z" fill="#77787B"/>
<path d="M181.803 44.2174C181.803 42.4738 182.221 41.0092 183.125 39.8236C184.03 38.6379 185.212 38.08 186.674 38.08C188.343 38.08 189.665 38.6379 190.57 39.6841C191.474 40.8 191.892 42.2646 191.892 44.2174C191.892 46.24 191.474 47.7743 190.57 48.8902C189.665 50.0061 188.413 50.5641 186.743 50.5641C185.212 50.5641 184.03 49.9364 183.195 48.7508C182.221 47.5651 181.803 46.0308 181.803 44.2174ZM183.473 44.2174C183.473 45.6123 183.751 46.7979 184.308 47.7046C184.865 48.6113 185.63 49.0995 186.604 49.0995C187.717 49.0995 188.622 48.681 189.178 47.8441C189.805 47.0072 190.083 45.7518 190.083 44.2174C190.083 41.079 188.9 39.5446 186.604 39.5446C185.56 39.5446 184.795 39.9631 184.238 40.8C183.751 41.6369 183.473 42.7528 183.473 44.2174Z" fill="#77787B"/>
<path d="M192.587 50.3549V49.9364L197.806 39.6841H192.657V38.2195H200.032V38.6379L194.814 48.8903H200.241V50.3549H192.587Z" fill="#77787B"/>
<path d="M209.216 50.3548L208.381 47.7743H203.859L202.954 50.3548H201.076L206.016 38.08H206.433L211.025 50.3548H209.216ZM206.224 41.2184L204.346 46.5887H207.964L206.224 41.2184Z" fill="#77787B"/>
<path d="M224.732 50.3548L223.897 47.7743H219.374L218.47 50.3548H216.591L221.531 38.08H221.949L226.541 50.3548H224.732ZM221.74 41.2184L219.861 46.5887H223.479L221.74 41.2184Z" fill="#77787B"/>
<path d="M235.656 50.5641L229.394 41.7067V50.4246H227.793V38.2195H228.489L234.612 46.5887V38.2195H236.212V50.4944H235.656V50.5641Z" fill="#77787B"/>
<path d="M240.387 50.3549H237.952V38.2195C239.482 38.1497 240.526 38.1497 240.943 38.1497C242.613 38.1497 244.005 38.638 244.979 39.6841C245.953 40.7303 246.44 42.0554 246.44 43.799C246.44 48.1928 244.422 50.3549 240.387 50.3549ZM239.621 39.7539V48.8205C239.969 48.8903 240.456 48.8903 241.013 48.8903C242.196 48.8903 243.1 48.4718 243.726 47.5651C244.422 46.7282 244.701 45.4728 244.701 43.9385C244.701 41.079 243.448 39.6144 240.874 39.6144C240.665 39.6144 240.248 39.6841 239.621 39.7539Z" fill="#77787B"/>
<path d="M254.441 50.3548L251.24 45.1241C250.892 45.1241 250.266 45.1241 249.501 45.0543V50.3548H247.831V38.2195C247.901 38.2195 248.318 38.2195 249.083 38.1497C249.849 38.08 250.475 38.08 250.823 38.08C253.745 38.08 255.206 39.2656 255.206 41.5672C255.206 42.3343 254.997 43.0318 254.51 43.6595C254.023 44.2872 253.467 44.6359 252.841 44.7754L256.319 50.3548H254.441ZM249.501 39.7538V43.7292C249.918 43.799 250.266 43.799 250.684 43.799C251.658 43.799 252.423 43.6595 252.841 43.3108C253.258 42.962 253.536 42.4041 253.536 41.5672C253.536 40.8697 253.328 40.3815 252.841 40.1025C252.354 39.8236 251.588 39.6841 250.545 39.6841C250.266 39.6143 249.918 39.6841 249.501 39.7538Z" fill="#77787B"/>
<path d="M264.46 50.3548L263.625 47.7743H259.102L258.198 50.3548H256.319L261.259 38.08H261.677L266.269 50.3548H264.46ZM261.398 41.2184L259.52 46.5887H263.138L261.398 41.2184Z" fill="#77787B"/>
<path d="M270.026 50.3549H267.591V38.2195C269.121 38.1497 270.165 38.1497 270.583 38.1497C272.252 38.1497 273.644 38.638 274.618 39.6841C275.592 40.7303 276.079 42.0554 276.079 43.799C276.01 48.1928 274.061 50.3549 270.026 50.3549ZM269.191 39.7539V48.8205C269.539 48.8903 270.026 48.8903 270.583 48.8903C271.765 48.8903 272.67 48.4718 273.296 47.5651C273.992 46.7282 274.27 45.4728 274.27 43.9385C274.27 41.079 273.018 39.6144 270.443 39.6144C270.304 39.6144 269.887 39.6841 269.191 39.7539Z" fill="#77787B"/>
<path d="M279.28 39.7538V43.1015H283.246V44.4964H279.28V48.8903H284.776V50.3549H277.61V38.2195H284.846V39.7538H279.28Z" fill="#77787B"/>
<path d="M49.8865 64.7221V35.8482C49.8865 32.4308 49.0516 29.7108 47.3817 27.758C45.7119 25.8051 43.3463 24.8287 40.2849 24.8287C38.3368 24.8287 36.3191 25.3867 34.3709 26.5723C32.4228 27.7579 30.8921 29.0831 29.8485 30.6174V64.7221H21.708V0H29.8485V23.8523C30.9617 22.1785 32.7011 20.7836 35.0667 19.598C37.5019 18.4821 39.937 17.9241 42.5114 17.9241C47.3817 17.9241 51.1389 19.5282 53.9219 22.7364C56.705 25.9446 58.0269 30.3385 58.0269 35.8482V64.7221H49.8865Z" fill="#77787B"/>
<path d="M95.0414 22.5272C96.5721 21.2718 98.5898 20.2954 101.303 19.3887C104.017 18.4821 106.661 18.0636 109.096 18.0636C115.706 18.0636 120.576 19.598 123.568 22.5969C126.56 25.5959 128.09 30.4082 128.09 37.0339V53.4933C128.09 57.5385 129.064 59.0728 131.708 59.84V65.6287C128.369 65.6287 125.933 65.1405 124.264 64.2339C122.594 63.2575 121.48 61.7231 120.715 59.561C117.445 63.6759 112.505 65.6985 105.826 65.6985C102.208 65.6985 99.1464 64.3733 96.5025 61.7928C93.8586 59.2123 92.5366 55.9344 92.5366 52.0287C92.5366 47.3559 94.5543 43.4503 98.6594 40.2421C102.695 37.0339 107.913 35.4298 114.175 35.4298C115.914 35.4298 117.793 35.7785 120.019 36.5457C120.019 29.0831 116.749 25.3169 110.07 25.3169L95.0414 22.5272ZM119.95 42.2646C117.375 41.7067 115.566 41.4277 114.592 41.4277C110.487 41.4277 107.148 42.4739 104.573 44.5662C101.999 46.6585 100.677 49.1692 100.677 52.0985C100.677 56.841 103.46 59.2821 109.096 59.2821C113.201 59.2821 116.819 57.3292 120.019 53.4236V42.2646H119.95ZM110 25.3169C102.347 24.9682 97.2678 29.2923 97.2678 29.2923C96.9199 24.759 94.9718 22.5272 94.9718 22.5272" fill="#E11B22"/>
<path d="M6.26188 64.3036V25.2472H0V18.4123H14.4023V64.3036H6.26188Z" fill="#E11B22"/>
<path d="M14.4023 7.18359H0V13.5303H14.4023V7.18359Z" fill="#E11B22"/>
<path d="M59.4185 23.5036C59.4185 23.5036 61.5057 26.2236 61.6449 29.4318C61.6449 29.4318 63.3147 24.759 70.4115 24.8984C77.9258 25.0379 78.9694 31.7333 78.9694 31.7333C78.9694 31.7333 79.3869 33.4072 79.3869 36.4759C79.3869 39.5446 79.3869 64.7918 79.3869 64.7918H87.5274V32.082C87.5274 32.082 87.1795 18.0636 72.638 18.0636C72.638 18.0636 66.1674 17.6451 59.4185 23.5036Z" fill="#E11B22"/>
</svg>
